<mxfile host="Electron" agent="Mozilla/5.0 (Windows NT 10.0; Win64; x64) AppleWebKit/537.36 (KHTML, like Gecko) draw.io/26.0.9 Chrome/128.0.6613.186 Electron/32.2.5 Safari/537.36" version="26.0.9">
  <diagram id="C5RBs43oDa-KdzZeNtuy" name="Page-1">
    <mxGraphModel dx="1050" dy="621" grid="1" gridSize="5" guides="1" tooltips="1" connect="1" arrows="1" fold="1" page="1" pageScale="1" pageWidth="827" pageHeight="1169" math="0" shadow="0">
      <root>
        <mxCell id="WIyWlLk6GJQsqaUBKTNV-0" />
        <mxCell id="WIyWlLk6GJQsqaUBKTNV-1" parent="WIyWlLk6GJQsqaUBKTNV-0" />
        <mxCell id="jhQMKRMtoGd_tm8R5ob7-36" value="" style="edgeStyle=orthogonalEdgeStyle;rounded=0;orthogonalLoop=1;jettySize=auto;exitX=0;exitY=0.5;exitDx=0;exitDy=0;entryX=0.5;entryY=0;entryDx=0;entryDy=0;strokeColor=#808080;fontFamily=JetBrains Mono;fontSize=12;dashed=1;" parent="WIyWlLk6GJQsqaUBKTNV-1" source="jhQMKRMtoGd_tm8R5ob7-5" target="jhQMKRMtoGd_tm8R5ob7-32" edge="1">
          <mxGeometry relative="1" as="geometry">
            <Array as="points">
              <mxPoint x="150" y="160" />
            </Array>
            <mxPoint x="280" y="99.99999999999989" as="sourcePoint" />
          </mxGeometry>
        </mxCell>
        <mxCell id="jhQMKRMtoGd_tm8R5ob7-44" value="" style="edgeStyle=orthogonalEdgeStyle;rounded=0;orthogonalLoop=1;jettySize=auto;entryX=0.5;entryY=0;entryDx=0;entryDy=0;strokeColor=light-dark(#808080, #ededed);fontFamily=JetBrains Mono;fontSize=12;dashed=1;exitX=1;exitY=0.25;exitDx=0;exitDy=0;" parent="WIyWlLk6GJQsqaUBKTNV-1" source="E60Pagr1P19D3ELgx8ib-5" target="jhQMKRMtoGd_tm8R5ob7-38" edge="1">
          <mxGeometry relative="1" as="geometry">
            <Array as="points">
              <mxPoint x="590" y="91" />
              <mxPoint x="590" y="105" />
            </Array>
            <mxPoint x="410" y="100" as="sourcePoint" />
          </mxGeometry>
        </mxCell>
        <mxCell id="jhQMKRMtoGd_tm8R5ob7-14" value="" style="edgeStyle=orthogonalEdgeStyle;rounded=0;orthogonalLoop=1;jettySize=auto;fontFamily=JetBrains Mono;fontSize=12;" parent="WIyWlLk6GJQsqaUBKTNV-1" source="jhQMKRMtoGd_tm8R5ob7-5" target="jhQMKRMtoGd_tm8R5ob7-13" edge="1">
          <mxGeometry relative="1" as="geometry" />
        </mxCell>
        <mxCell id="jhQMKRMtoGd_tm8R5ob7-42" value="" style="edgeStyle=orthogonalEdgeStyle;rounded=0;orthogonalLoop=1;jettySize=auto;exitX=1;exitY=0.75;exitDx=0;exitDy=0;entryX=0.5;entryY=0;entryDx=0;entryDy=0;strokeColor=light-dark(#808080, #ededed);fontFamily=JetBrains Mono;fontSize=12;dashed=1;" parent="WIyWlLk6GJQsqaUBKTNV-1" source="jhQMKRMtoGd_tm8R5ob7-5" target="jhQMKRMtoGd_tm8R5ob7-41" edge="1">
          <mxGeometry relative="1" as="geometry">
            <Array as="points">
              <mxPoint x="590" y="170" />
              <mxPoint x="590" y="185" />
            </Array>
          </mxGeometry>
        </mxCell>
        <mxCell id="jhQMKRMtoGd_tm8R5ob7-5" value="Сжатие по дальности" style="rounded=1;glass=0;strokeWidth=1;shadow=0;fontFamily=JetBrains Mono;fontSize=12;whiteSpace=wrap;" parent="WIyWlLk6GJQsqaUBKTNV-1" vertex="1">
          <mxGeometry x="280" y="140" width="180" height="40" as="geometry" />
        </mxCell>
        <mxCell id="jhQMKRMtoGd_tm8R5ob7-16" value="" style="edgeStyle=orthogonalEdgeStyle;rounded=0;orthogonalLoop=1;jettySize=auto;fontFamily=JetBrains Mono;fontSize=12;" parent="WIyWlLk6GJQsqaUBKTNV-1" source="jhQMKRMtoGd_tm8R5ob7-13" target="jhQMKRMtoGd_tm8R5ob7-15" edge="1">
          <mxGeometry relative="1" as="geometry" />
        </mxCell>
        <mxCell id="jhQMKRMtoGd_tm8R5ob7-13" value="БПФ по азимуту" style="rounded=1;glass=0;strokeWidth=1;shadow=0;fontFamily=JetBrains Mono;fontSize=12;whiteSpace=wrap;" parent="WIyWlLk6GJQsqaUBKTNV-1" vertex="1">
          <mxGeometry x="280" y="200" width="180" height="40" as="geometry" />
        </mxCell>
        <mxCell id="jhQMKRMtoGd_tm8R5ob7-18" value="" style="edgeStyle=orthogonalEdgeStyle;rounded=0;orthogonalLoop=1;jettySize=auto;fontFamily=JetBrains Mono;fontSize=12;" parent="WIyWlLk6GJQsqaUBKTNV-1" source="jhQMKRMtoGd_tm8R5ob7-15" target="jhQMKRMtoGd_tm8R5ob7-17" edge="1">
          <mxGeometry relative="1" as="geometry" />
        </mxCell>
        <mxCell id="jhQMKRMtoGd_tm8R5ob7-15" value="Вторичное сжатие по дальности" style="rounded=1;glass=0;strokeWidth=1;shadow=0;fontFamily=JetBrains Mono;fontSize=12;whiteSpace=wrap;" parent="WIyWlLk6GJQsqaUBKTNV-1" vertex="1">
          <mxGeometry x="280" y="260" width="180" height="40" as="geometry" />
        </mxCell>
        <mxCell id="jhQMKRMtoGd_tm8R5ob7-20" value="" style="edgeStyle=orthogonalEdgeStyle;rounded=0;orthogonalLoop=1;jettySize=auto;fontFamily=JetBrains Mono;fontSize=12;" parent="WIyWlLk6GJQsqaUBKTNV-1" source="jhQMKRMtoGd_tm8R5ob7-17" target="jhQMKRMtoGd_tm8R5ob7-19" edge="1">
          <mxGeometry relative="1" as="geometry" />
        </mxCell>
        <mxCell id="jhQMKRMtoGd_tm8R5ob7-17" value="Коррекция миграции дальности" style="rounded=1;glass=0;strokeWidth=1;shadow=0;fontFamily=JetBrains Mono;fontSize=12;whiteSpace=wrap;" parent="WIyWlLk6GJQsqaUBKTNV-1" vertex="1">
          <mxGeometry x="280" y="320" width="180" height="40" as="geometry" />
        </mxCell>
        <mxCell id="jhQMKRMtoGd_tm8R5ob7-22" value="" style="edgeStyle=orthogonalEdgeStyle;rounded=0;orthogonalLoop=1;jettySize=auto;fontFamily=JetBrains Mono;fontSize=12;" parent="WIyWlLk6GJQsqaUBKTNV-1" source="jhQMKRMtoGd_tm8R5ob7-19" target="jhQMKRMtoGd_tm8R5ob7-21" edge="1">
          <mxGeometry relative="1" as="geometry" />
        </mxCell>
        <mxCell id="jhQMKRMtoGd_tm8R5ob7-19" value="Сжатие по азимуту" style="rounded=1;glass=0;strokeWidth=1;shadow=0;fontFamily=JetBrains Mono;fontSize=12;whiteSpace=wrap;" parent="WIyWlLk6GJQsqaUBKTNV-1" vertex="1">
          <mxGeometry x="280" y="380" width="180" height="40" as="geometry" />
        </mxCell>
        <mxCell id="jhQMKRMtoGd_tm8R5ob7-24" value="" style="edgeStyle=orthogonalEdgeStyle;rounded=0;orthogonalLoop=1;jettySize=auto;fontFamily=JetBrains Mono;fontSize=12;entryX=0.5;entryY=0;entryDx=0;entryDy=0;" parent="WIyWlLk6GJQsqaUBKTNV-1" source="jhQMKRMtoGd_tm8R5ob7-21" target="E60Pagr1P19D3ELgx8ib-7" edge="1">
          <mxGeometry relative="1" as="geometry">
            <mxPoint x="340.0344827586207" y="500" as="targetPoint" />
          </mxGeometry>
        </mxCell>
        <mxCell id="jhQMKRMtoGd_tm8R5ob7-21" value="ОБПФ по азимуту" style="rounded=1;glass=0;strokeWidth=1;shadow=0;fontFamily=JetBrains Mono;fontSize=12;whiteSpace=wrap;" parent="WIyWlLk6GJQsqaUBKTNV-1" vertex="1">
          <mxGeometry x="280" y="440" width="180" height="40" as="geometry" />
        </mxCell>
        <mxCell id="jhQMKRMtoGd_tm8R5ob7-25" value="" style="endArrow=none;dashed=1;rounded=0;fontFamily=JetBrains Mono;fontSize=12;" parent="WIyWlLk6GJQsqaUBKTNV-1" edge="1">
          <mxGeometry width="50" height="50" relative="1" as="geometry">
            <mxPoint x="260" y="540" as="sourcePoint" />
            <mxPoint x="260" y="40" as="targetPoint" />
          </mxGeometry>
        </mxCell>
        <mxCell id="jhQMKRMtoGd_tm8R5ob7-26" value="" style="endArrow=none;dashed=1;rounded=0;fontFamily=JetBrains Mono;fontSize=12;" parent="WIyWlLk6GJQsqaUBKTNV-1" edge="1">
          <mxGeometry width="50" height="50" relative="1" as="geometry">
            <mxPoint x="480" y="540" as="sourcePoint" />
            <mxPoint x="480" y="40" as="targetPoint" />
          </mxGeometry>
        </mxCell>
        <mxCell id="jhQMKRMtoGd_tm8R5ob7-27" value="&quot;базовый&quot; метод" style="text;align=center;verticalAlign=middle;rounded=0;fontFamily=JetBrains Mono;fontSize=14;fontColor=light-dark(#808080, #ededed);whiteSpace=wrap;" parent="WIyWlLk6GJQsqaUBKTNV-1" vertex="1">
          <mxGeometry x="60" y="40" width="180" height="30" as="geometry" />
        </mxCell>
        <mxCell id="jhQMKRMtoGd_tm8R5ob7-28" value="базовый алгоритм" style="text;align=center;verticalAlign=middle;rounded=0;fontFamily=JetBrains Mono;fontSize=14;whiteSpace=wrap;" parent="WIyWlLk6GJQsqaUBKTNV-1" vertex="1">
          <mxGeometry x="280" y="40" width="180" height="30" as="geometry" />
        </mxCell>
        <mxCell id="jhQMKRMtoGd_tm8R5ob7-29" value="&quot;приближённый&quot; метод" style="text;align=center;verticalAlign=middle;rounded=0;fontFamily=JetBrains Mono;fontSize=14;fontColor=light-dark(#808080, #ededed);whiteSpace=wrap;" parent="WIyWlLk6GJQsqaUBKTNV-1" vertex="1">
          <mxGeometry x="500" y="40" width="180" height="30" as="geometry" />
        </mxCell>
        <mxCell id="jhQMKRMtoGd_tm8R5ob7-37" value="" style="edgeStyle=orthogonalEdgeStyle;rounded=0;orthogonalLoop=1;jettySize=auto;exitX=0.5;exitY=1;exitDx=0;exitDy=0;entryX=0;entryY=0.5;entryDx=0;entryDy=0;strokeColor=#808080;fontFamily=JetBrains Mono;fontSize=12;dashed=1;" parent="WIyWlLk6GJQsqaUBKTNV-1" source="jhQMKRMtoGd_tm8R5ob7-32" target="jhQMKRMtoGd_tm8R5ob7-13" edge="1">
          <mxGeometry relative="1" as="geometry">
            <Array as="points">
              <mxPoint x="150" y="220" />
            </Array>
          </mxGeometry>
        </mxCell>
        <mxCell id="jhQMKRMtoGd_tm8R5ob7-32" value="Коррекция фазы и интерполяция" style="rounded=1;fontSize=12;glass=0;strokeWidth=1;shadow=0;fontFamily=JetBrains Mono;strokeColor=light-dark(#808080, #535353);fontColor=#808080;whiteSpace=wrap;" parent="WIyWlLk6GJQsqaUBKTNV-1" vertex="1">
          <mxGeometry x="60" y="175" width="180" height="30" as="geometry" />
        </mxCell>
        <mxCell id="jhQMKRMtoGd_tm8R5ob7-40" value="" style="edgeStyle=orthogonalEdgeStyle;rounded=0;orthogonalLoop=1;jettySize=auto;exitX=0.5;exitY=1;exitDx=0;exitDy=0;entryX=1;entryY=0.25;entryDx=0;entryDy=0;strokeColor=light-dark(#808080, #ededed);fontFamily=JetBrains Mono;fontSize=12;dashed=1;" parent="WIyWlLk6GJQsqaUBKTNV-1" source="jhQMKRMtoGd_tm8R5ob7-38" target="jhQMKRMtoGd_tm8R5ob7-5" edge="1">
          <mxGeometry relative="1" as="geometry">
            <Array as="points">
              <mxPoint x="591" y="150" />
            </Array>
          </mxGeometry>
        </mxCell>
        <mxCell id="jhQMKRMtoGd_tm8R5ob7-38" value="Первичная&#xa;коррекция фазы" style="rounded=1;fontSize=12;glass=0;strokeWidth=1;shadow=0;fontFamily=JetBrains Mono;strokeColor=light-dark(#808080, #535353);fontColor=#808080;whiteSpace=wrap;" parent="WIyWlLk6GJQsqaUBKTNV-1" vertex="1">
          <mxGeometry x="501" y="105" width="179" height="30" as="geometry" />
        </mxCell>
        <mxCell id="jhQMKRMtoGd_tm8R5ob7-45" value="" style="edgeStyle=orthogonalEdgeStyle;rounded=0;orthogonalLoop=1;jettySize=auto;exitX=0.5;exitY=1;exitDx=0;exitDy=0;entryX=1;entryY=0.75;entryDx=0;entryDy=0;strokeColor=light-dark(#808080, #ededed);fontFamily=JetBrains Mono;fontSize=12;dashed=1;" parent="WIyWlLk6GJQsqaUBKTNV-1" source="jhQMKRMtoGd_tm8R5ob7-41" target="jhQMKRMtoGd_tm8R5ob7-13" edge="1">
          <mxGeometry relative="1" as="geometry">
            <Array as="points">
              <mxPoint x="591" y="230" />
            </Array>
          </mxGeometry>
        </mxCell>
        <mxCell id="jhQMKRMtoGd_tm8R5ob7-41" value="Вторичная&#xa;коррекция фазы" style="rounded=1;fontSize=12;glass=0;strokeWidth=1;shadow=0;fontFamily=JetBrains Mono;strokeColor=light-dark(#808080, #535353);fontColor=#808080;whiteSpace=wrap;" parent="WIyWlLk6GJQsqaUBKTNV-1" vertex="1">
          <mxGeometry x="501" y="185" width="179" height="30" as="geometry" />
        </mxCell>
        <mxCell id="E60Pagr1P19D3ELgx8ib-9" style="edgeStyle=orthogonalEdgeStyle;rounded=0;orthogonalLoop=1;jettySize=auto;html=1;exitX=0.5;exitY=1;exitDx=0;exitDy=0;entryX=0.5;entryY=0;entryDx=0;entryDy=0;fontSize=12;fontFamily=JetBrains Mono;" parent="WIyWlLk6GJQsqaUBKTNV-1" source="E60Pagr1P19D3ELgx8ib-5" target="jhQMKRMtoGd_tm8R5ob7-5" edge="1">
          <mxGeometry relative="1" as="geometry" />
        </mxCell>
        <mxCell id="E60Pagr1P19D3ELgx8ib-5" value="Голограмма" style="shape=parallelogram;perimeter=parallelogramPerimeter;whiteSpace=wrap;html=1;fixedSize=1;fontFamily=JetBrains Mono;fontSize=12;" parent="WIyWlLk6GJQsqaUBKTNV-1" vertex="1">
          <mxGeometry x="280" y="80" width="180" height="40" as="geometry" />
        </mxCell>
        <mxCell id="E60Pagr1P19D3ELgx8ib-7" value="РЛИ" style="shape=parallelogram;perimeter=parallelogramPerimeter;whiteSpace=wrap;html=1;fixedSize=1;fontFamily=JetBrains Mono;fontSize=12;" parent="WIyWlLk6GJQsqaUBKTNV-1" vertex="1">
          <mxGeometry x="280" y="500" width="180" height="40" as="geometry" />
        </mxCell>
      </root>
    </mxGraphModel>
  </diagram>
</mxfile>
